<svg xmlns="http://www.w3.org/2000/svg" width="318" height="318" viewBox="0 0 318 318">
  <g id="around-contact" transform="translate(-968 -116)">
    <rect id="Rectangle_3554" data-name="Rectangle 3554" width="318" height="318" transform="translate(968 116)" fill="none"/>
    <path id="Path_5246" data-name="Path 5246" d="M191.86,44.52q-43.884,0-80.03-20.67A152.009,152.009,0,0,1,54.8-32.86Q33.92-68.9,33.92-113.208q0-45.368,20.034-81.832a146.888,146.888,0,0,1,56.392-57.452Q146.7-273.48,193.98-273.48q48.76,0,83.634,19.928t52.576,52.788a146.58,146.58,0,0,1,17.7,70.6q0,3.392-.424,10.6-2.756,39.008-19.61,58.724T282.384-41.128q-17.172,0-30-6.678A43.421,43.421,0,0,1,233.2-66.992a47.924,47.924,0,0,1-20.246,14.628,70.908,70.908,0,0,1-26.182,4.876q-18.02,0-31.8-7.844A54.875,54.875,0,0,1,133.56-77.168q-7.632-13.992-7.632-32.012,0-18.656,7.844-32.754a54.31,54.31,0,0,1,21.836-21.73A64.878,64.878,0,0,1,187.2-171.3a73.558,73.558,0,0,1,23,3.71,52.61,52.61,0,0,1,19.61,11.342v-9.116h19.5l-.212,65.084q0,16.96,8.48,26.924t26.5,9.964q17.384,0,27.984-14.31t11.872-39.114q.212-2.968.212-8.9,0-38.8-16.748-67.2a110.872,110.872,0,0,0-46.11-43.354q-29.362-14.946-66.674-14.946-41.976,0-73.034,18.868a126.718,126.718,0,0,0-47.488,50.244,144.488,144.488,0,0,0-16.43,68.052q0,37.736,18.02,68.9a133.5,133.5,0,0,0,49.078,49.29Q155.82,22.26,193.344,22.26a149.307,149.307,0,0,0,39.644-5.406,130.9,130.9,0,0,0,34.98-14.946l8.692,19.08a161.667,161.667,0,0,1-40.81,17.6A164.667,164.667,0,0,1,191.86,44.52ZM148.824-109.6q0,19.292,10.388,29.362t28.832,10.07q17.6,0,27.984-10.176T226.416-109.6q0-19.292-10.282-29.468t-27.878-10.176q-19.08,0-29.256,10.282T148.824-109.6Z" transform="translate(936.08 389.48)" fill="#acd647"/>
  </g>
</svg>
