<svg xmlns="http://www.w3.org/2000/svg" width="91.732" height="14.25" viewBox="0 0 91.732 14.25"><path d="M2.489-3.857A2.953,2.953,0,0,0,3.62-1.8a4.667,4.667,0,0,0,2.689.637,4.774,4.774,0,0,0,1.491-.2,2.618,2.618,0,0,0,.96-.532,1.863,1.863,0,0,0,.513-.779,2.9,2.9,0,0,0,.152-.941,3.086,3.086,0,0,0-.1-.77,1.58,1.58,0,0,0-.371-.674,2.375,2.375,0,0,0-.76-.532,4.977,4.977,0,0,0-1.245-.361l-1.71-.3a10.175,10.175,0,0,1-1.786-.456,4.469,4.469,0,0,1-1.321-.732A2.811,2.811,0,0,1,1.321-8.55a4.219,4.219,0,0,1-.276-1.615,3.317,3.317,0,0,1,.39-1.634,3.542,3.542,0,0,1,1.055-1.178,4.6,4.6,0,0,1,1.577-.7,8.133,8.133,0,0,1,1.976-.228,7.353,7.353,0,0,1,2.251.295,4.218,4.218,0,0,1,1.472.789,3.353,3.353,0,0,1,.865,1.13,6.59,6.59,0,0,1,.446,1.3l-1.634.323a4.785,4.785,0,0,0-.389-1.016,2.226,2.226,0,0,0-.627-.741,2.746,2.746,0,0,0-.96-.446,5.454,5.454,0,0,0-1.387-.152,6.023,6.023,0,0,0-1.558.171,2.862,2.862,0,0,0-1.007.466,1.652,1.652,0,0,0-.541.7,2.33,2.33,0,0,0-.162.864,2.737,2.737,0,0,0,.124.865,1.541,1.541,0,0,0,.418.646,2.316,2.316,0,0,0,.77.456A7.069,7.069,0,0,0,5.3-7.942L7.2-7.6a6.184,6.184,0,0,1,3.1,1.32,3.524,3.524,0,0,1,.988,2.707,3.755,3.755,0,0,1-.314,1.53A3.479,3.479,0,0,1,10.042-.8,4.463,4.463,0,0,1,8.493.038a7.056,7.056,0,0,1-2.185.3A9.232,9.232,0,0,1,4.133.1a4.9,4.9,0,0,1-1.7-.751A3.856,3.856,0,0,1,1.273-1.957a4.772,4.772,0,0,1-.532-1.9ZM17.328.3a5.188,5.188,0,0,1-2-.361,4.1,4.1,0,0,1-1.482-1.026,4.487,4.487,0,0,1-.931-1.634A6.824,6.824,0,0,1,12.6-4.883a6.476,6.476,0,0,1,.342-2.166A4.752,4.752,0,0,1,13.908-8.7a4.251,4.251,0,0,1,1.51-1.054,5.038,5.038,0,0,1,1.966-.371,5.135,5.135,0,0,1,1.976.361,4.132,4.132,0,0,1,1.492,1.035,4.531,4.531,0,0,1,.941,1.624,6.649,6.649,0,0,1,.323,2.147,6.709,6.709,0,0,1-.333,2.185,4.716,4.716,0,0,1-.95,1.653,4.142,4.142,0,0,1-1.51,1.055A5.16,5.16,0,0,1,17.328.3Zm.019-1.368a3.03,3.03,0,0,0,1.368-.285,2.549,2.549,0,0,0,.941-.8A3.439,3.439,0,0,0,20.2-3.373a6.717,6.717,0,0,0,.171-1.568A6.507,6.507,0,0,0,20.2-6.479a3.344,3.344,0,0,0-.542-1.206,2.585,2.585,0,0,0-.941-.788,3.03,3.03,0,0,0-1.368-.285,2.97,2.97,0,0,0-1.358.285,2.607,2.607,0,0,0-.931.788,3.344,3.344,0,0,0-.542,1.206,6.6,6.6,0,0,0-.171,1.558,6.6,6.6,0,0,0,.171,1.558,3.547,3.547,0,0,0,.532,1.216,2.471,2.471,0,0,0,.931.8A3.03,3.03,0,0,0,17.347-1.064Zm6.422-8.759H25.4V-8.3a4.048,4.048,0,0,1,1.292-1.254,3.054,3.054,0,0,1,1.577-.437,4.311,4.311,0,0,1,.874.076l-.209,1.539q-.19-.038-.38-.066a2.828,2.828,0,0,0-.418-.028,2.882,2.882,0,0,0-.931.161,2.545,2.545,0,0,0-.893.542,2.683,2.683,0,0,0-.656.836,2.434,2.434,0,0,0-.237,1.1V0H23.769Zm6.422,0h1.653V0H30.191Zm-.057-3.743H31.9v1.919H30.134Zm3.724,3.743h1.634v1.5a4.386,4.386,0,0,1,1.6-1.387,4.219,4.219,0,0,1,1.843-.418,3.143,3.143,0,0,1,2.479.912,3.926,3.926,0,0,1,.807,2.679V0H40.565V-6.213a2.928,2.928,0,0,0-.494-1.929,1.922,1.922,0,0,0-1.52-.561,3.279,3.279,0,0,0-1.092.19,2.7,2.7,0,0,0-.979.608,3.169,3.169,0,0,0-.722.884,2.569,2.569,0,0,0-.247,1.206V0H33.858Zm21.6,5.358a6.3,6.3,0,0,1-.513,1.909,4.794,4.794,0,0,1-1.083,1.53A4.812,4.812,0,0,1,52.2-.019a6.545,6.545,0,0,1-2.271.361,6.42,6.42,0,0,1-2.527-.475,5.058,5.058,0,0,1-1.9-1.387A6.45,6.45,0,0,1,44.3-3.753a9.767,9.767,0,0,1-.427-3.011,9.354,9.354,0,0,1,.456-3.04A6.445,6.445,0,0,1,45.6-12.046a5.422,5.422,0,0,1,1.929-1.387,6.052,6.052,0,0,1,2.4-.475,6.5,6.5,0,0,1,2.166.323,4.419,4.419,0,0,1,1.549.912,4.577,4.577,0,0,1,1.026,1.406,8.053,8.053,0,0,1,.6,1.805l-1.71.285a6.922,6.922,0,0,0-.446-1.339,3.381,3.381,0,0,0-.7-1.017,2.839,2.839,0,0,0-1.026-.636,4.258,4.258,0,0,0-1.453-.219,3.846,3.846,0,0,0-1.8.408,3.83,3.83,0,0,0-1.33,1.14,5.3,5.3,0,0,0-.826,1.767,8.616,8.616,0,0,0-.285,2.289,8.616,8.616,0,0,0,.285,2.29,5.416,5.416,0,0,0,.826,1.777,3.7,3.7,0,0,0,1.33,1.14,3.965,3.965,0,0,0,1.814.4,4.677,4.677,0,0,0,1.587-.237,2.841,2.841,0,0,0,1.083-.675A3.2,3.2,0,0,0,53.3-3.135a6.017,6.017,0,0,0,.361-1.33Zm7.695,3.116A4.8,4.8,0,0,1,61.807-.237a4.056,4.056,0,0,1-2.033.465,4.829,4.829,0,0,1-1.358-.18A2.931,2.931,0,0,1,57.351-.5a2.515,2.515,0,0,1-.693-.922,3.135,3.135,0,0,1-.247-1.292,2.846,2.846,0,0,1,.428-1.634,2.983,2.983,0,0,1,1.14-.988,5.618,5.618,0,0,1,1.605-.513,14.407,14.407,0,0,1,1.843-.19L63.118-6.1v-.38a2.541,2.541,0,0,0-.532-1.8,2.322,2.322,0,0,0-1.729-.551,3.034,3.034,0,0,0-1.729.39,1.8,1.8,0,0,0-.722,1.074l-1.5-.171A2.814,2.814,0,0,1,58.178-9.51a5.211,5.211,0,0,1,2.736-.618,5.468,5.468,0,0,1,1.8.257,2.979,2.979,0,0,1,1.188.731,2.752,2.752,0,0,1,.655,1.178,5.774,5.774,0,0,1,.2,1.577V0h-1.6Zm-.038-3.572-1.577.057a9.253,9.253,0,0,0-1.672.19,3.241,3.241,0,0,0-1.055.409,1.43,1.43,0,0,0-.551.636,2.218,2.218,0,0,0-.161.874,1.605,1.605,0,0,0,.446,1.188,2.027,2.027,0,0,0,1.472.447,3.327,3.327,0,0,0,2.28-.722,2.5,2.5,0,0,0,.817-1.976ZM73.834-1.406A4.485,4.485,0,0,1,72.428-.143,3.791,3.791,0,0,1,70.547.3a4.1,4.1,0,0,1-1.871-.4,3.635,3.635,0,0,1-1.3-1.092,4.734,4.734,0,0,1-.76-1.644,8.055,8.055,0,0,1-.247-2.033,7.382,7.382,0,0,1,.3-2.194,4.869,4.869,0,0,1,.865-1.663A3.7,3.7,0,0,1,68.9-9.766a4.448,4.448,0,0,1,1.833-.361,4.291,4.291,0,0,1,1.577.314A3.592,3.592,0,0,1,73.8-8.626v-4.94h1.653V0H73.834Zm.019-3.8A5.2,5.2,0,0,0,73.6-7.04a2.578,2.578,0,0,0-.845-1.111,2.534,2.534,0,0,0-.845-.475,3.154,3.154,0,0,0-.941-.133,3.016,3.016,0,0,0-1.13.209,2.29,2.29,0,0,0-.912.674,3.325,3.325,0,0,0-.608,1.2A6.271,6.271,0,0,0,68.1-4.9a6.042,6.042,0,0,0,.237,1.824A3.232,3.232,0,0,0,68.961-1.9a2.289,2.289,0,0,0,.874.627,2.709,2.709,0,0,0,1,.19,3.391,3.391,0,0,0,.988-.133,2.9,2.9,0,0,0,.874-.456,2.909,2.909,0,0,0,.865-1.14,4.394,4.394,0,0,0,.294-1.729Zm9.709,3.857A4.8,4.8,0,0,1,82.213-.237,4.056,4.056,0,0,1,80.18.228a4.829,4.829,0,0,1-1.359-.18A2.931,2.931,0,0,1,77.757-.5a2.515,2.515,0,0,1-.694-.922,3.135,3.135,0,0,1-.247-1.292,2.846,2.846,0,0,1,.427-1.634,2.983,2.983,0,0,1,1.14-.988,5.618,5.618,0,0,1,1.605-.513,14.407,14.407,0,0,1,1.843-.19L83.524-6.1v-.38a2.541,2.541,0,0,0-.532-1.8,2.322,2.322,0,0,0-1.729-.551,3.034,3.034,0,0,0-1.729.39,1.8,1.8,0,0,0-.722,1.074l-1.5-.171A2.814,2.814,0,0,1,78.584-9.51a5.211,5.211,0,0,1,2.736-.618,5.468,5.468,0,0,1,1.8.257,2.979,2.979,0,0,1,1.188.731,2.752,2.752,0,0,1,.655,1.178,5.774,5.774,0,0,1,.2,1.577V0h-1.6Zm-.038-3.572-1.577.057a9.253,9.253,0,0,0-1.672.19,3.241,3.241,0,0,0-1.054.409,1.43,1.43,0,0,0-.551.636,2.218,2.218,0,0,0-.161.874,1.605,1.605,0,0,0,.447,1.188,2.027,2.027,0,0,0,1.472.447,3.327,3.327,0,0,0,2.28-.722,2.5,2.5,0,0,0,.817-1.976Zm3.572-4.9H88.73V-8.3a4.048,4.048,0,0,1,1.292-1.254A3.054,3.054,0,0,1,91.6-9.994a4.311,4.311,0,0,1,.874.076l-.209,1.539q-.19-.038-.38-.066a2.828,2.828,0,0,0-.418-.028,2.882,2.882,0,0,0-.931.161,2.545,2.545,0,0,0-.893.542,2.683,2.683,0,0,0-.656.836,2.434,2.434,0,0,0-.237,1.1V0H87.1Z" transform="translate(-0.741 13.908)" fill="#fff"/></svg>